# xmcd
#
# Track frame offsets: 
#        150
#        13870
#        24088
#        35977
#        48766
#        58731
#        84212
#        97577
#        106356
#        125955
#        137015
#        148813
#        162262
#        173943
#        185023
#        196108
#        206919
#        218492
#        231564
#        245607
#        257032
#        269268
#        281496
#        293534
#
# Disc length: 4061 seconds
#
# Revision: 0
# Processed by: cddbd v1.5.2PL0 Copyright (c) Steve Scherf et al.
# Submitted via: ExactAudioCopy v1.1
#
DISCID=620fdb18
DTITLE=Jim Reeves - CD06_Milestones Of A Country Legend
DYEAR=2017
DGENRE=Country
TTITLE0=Trouble in the Amen Corner
TTITLE1=I'm Waiting for Ships That Never Come In
TTITLE2=Annable Lee
TTITLE3=The Gun
TTITLE4=The Farmer and The Lord
TTITLE5=The Shifting Whispering Sands
TTITLE6=Old Tige
TTITLE7=Why Do I Love You
TTITLE8=(Far Away Feeling) The Spell of the Yukon
TTITLE9=Man with Broken Hearts
TTITLE10=Too Many Paries and Too Many Pals
TTITLE11=Seven Days
TTITLE12=Have You Ever Been Lonely 
TTITLE13=There's Always Me
TTITLE14=Just Walking in the Rain
TTITLE15=Be Honest with Me
TTITLE16=Welcome to My World 
TTITLE17=(It's No) Sin
TTITLE18=I Fall Two Pieces
TTITLE19=Am I That Easy To Forget
TTITLE20=Blue Skies
TTITLE21=All Dressed Up and Lonely
TTITLE22=Wild Rose 
TTITLE23=I'm a Fool To Care
EXTD=
EXTT0=
EXTT1=
EXTT2=
EXTT3=
EXTT4=
EXTT5=
EXTT6=
EXTT7=
EXTT8=
EXTT9=
EXTT10=
EXTT11=
EXTT12=
EXTT13=
EXTT14=
EXTT15=
EXTT16=
EXTT17=
EXTT18=
EXTT19=
EXTT20=
EXTT21=
EXTT22=
EXTT23=
PLAYORDER=
